2.5Hzlow3min_grf.mot
version=1
nRows=27
nColumns 19
inDegrees=yes
endheader
time	1_ground_force_vx	1_ground_force_vy	1_ground_force_vz	1_ground_force_px	1_ground_force_py	1_ground_force_pz	1_ground_torque_x	1_ground_torque_y	1_ground_torque_z	2_ground_force_vx	2_ground_force_vy	2_ground_force_vz	2_ground_force_px	2_ground_force_py	2_ground_force_pz	2_ground_torque_x	2_ground_torque_y	2_ground_torque_z
            3.751500	          -12.161540	          308.696258	          -18.181384	           -0.194348	            0.006195	           -0.397204	            0.017783	           -0.451387	            0.026585	           -0.855547	          381.864213	           18.538207	           -0.226311	            0.005647	           -0.692111	           -0.001590	            0.709518	            0.034445
            3.752000	          -11.247375	          314.107355	          -18.848309	           -0.194054	            0.006197	           -0.397637	            0.025427	           -0.710114	            0.042611	           -1.213802	          390.331691	           19.178637	           -0.226139	            0.005647	           -0.692153	           -0.001872	            0.601955	            0.029577
            3.752500	          -10.517865	          318.439377	          -20.115544	           -0.194203	            0.006199	           -0.397972	            0.032675	           -0.989275	            0.062492	           -1.143034	          396.774520	           19.952444	           -0.225888	            0.005648	           -0.691989	           -0.001260	            0.437217	            0.021986
            3.753000	           -9.513236	          324.933855	          -21.190762	           -0.194558	            0.006193	           -0.396723	            0.027594	           -0.942496	            0.061465	           -0.560447	          404.141648	           20.260035	           -0.226136	            0.005646	           -0.691874	           -0.000522	            0.376307	            0.018865
            3.753500	           -7.910969	          329.082862	          -21.773093	           -0.194688	            0.006194	           -0.396984	            0.018173	           -0.755950	            0.050016	            0.156687	          413.166839	           20.526553	           -0.226475	            0.005647	           -0.692376	            0.000223	            0.587178	            0.029172
            3.754000	           -6.170279	          333.951127	          -21.939970	           -0.194420	            0.006198	           -0.397777	            0.009737	           -0.527012	            0.034624	            1.354325	          418.878610	           20.874901	           -0.226753	            0.005643	           -0.691469	            0.002453	            0.758722	            0.037811
            3.754500	           -4.474639	          340.079505	          -21.688620	           -0.194337	            0.006197	           -0.397563	            0.005835	           -0.443482	            0.028283	            2.030133	          426.428771	           21.605463	           -0.226734	            0.005645	           -0.692043	            0.004246	            0.891936	            0.045191
            3.755000	           -3.099132	          345.125244	          -21.211831	           -0.194647	            0.006196	           -0.397438	            0.004984	           -0.555072	            0.034115	            2.797687	          434.531297	           22.431812	           -0.227008	            0.005645	           -0.692347	            0.005503	            0.854765	            0.044126
            3.755500	           -1.817831	          349.634720	          -21.791819	           -0.194653	            0.006197	           -0.397666	            0.003884	           -0.747117	            0.046566	            2.916277	          440.787644	           23.908864	           -0.227241	            0.005644	           -0.692226	            0.004661	            0.704450	            0.038210
            3.756000	           -0.950420	          355.047380	          -22.825478	           -0.194696	            0.006198	           -0.397794	            0.002418	           -0.903278	            0.058070	            3.170415	          448.336390	           24.592677	           -0.227113	            0.005645	           -0.692430	            0.004751	            0.671914	            0.036857
            3.756500	            0.098541	          360.463222	          -24.593287	           -0.194739	            0.006196	           -0.397487	           -0.000240	           -0.876501	            0.059801	            4.271921	          454.782666	           25.459902	           -0.227104	            0.005644	           -0.692074	            0.006264	            0.666804	            0.037329
            3.757000	            1.286400	          364.615233	          -25.908289	           -0.194913	            0.006196	           -0.397471	           -0.002593	           -0.734958	            0.052224	            5.460919	          462.888389	           25.816791	           -0.227335	            0.005645	           -0.692595	            0.009844	            0.834434	            0.046539
            3.757500	            2.566335	          369.127069	          -27.038548	           -0.194655	            0.006199	           -0.398058	           -0.004251	           -0.611462	            0.044790	            6.934525	          470.072916	           26.592628	           -0.227640	            0.005641	           -0.691898	            0.016015	            1.085622	            0.061415
            3.758000	            3.710332	          374.897561	          -27.429361	           -0.194608	            0.006200	           -0.398263	           -0.005509	           -0.556660	            0.040728	            8.452966	          477.810202	           27.323489	           -0.227770	            0.005643	           -0.692529	            0.021460	            1.213066	            0.069369
            3.758500	            4.763748	          380.846305	          -27.360614	           -0.194977	            0.006197	           -0.397559	           -0.009009	           -0.720259	            0.051745	            9.926879	          484.992219	           28.803248	           -0.227970	            0.005642	           -0.692532	            0.019942	            0.974287	            0.057862
            3.759000	            5.816760	          385.894734	          -27.525012	           -0.195230	            0.006198	           -0.397863	           -0.011905	           -0.789823	            0.056336	           10.557228	          492.173367	           29.673300	           -0.227978	            0.005643	           -0.692765	            0.017628	            0.821819	            0.049548
            3.759500	            7.004910	          390.947318	          -28.652725	           -0.195319	            0.006200	           -0.398314	           -0.014930	           -0.833260	            0.061070	           11.043183	          500.457741	           30.875851	           -0.228309	            0.005643	           -0.693223	            0.016977	            0.769385	            0.047467
            3.760000	            7.732905	          396.723629	          -30.418191	           -0.195204	            0.006199	           -0.398220	           -0.013626	           -0.699051	            0.053599	           11.719696	          507.823366	           31.699612	           -0.228269	            0.005643	           -0.693071	            0.020330	            0.880912	            0.054989
            3.760500	            8.598950	          402.138649	          -32.002125	           -0.195243	            0.006198	           -0.397819	           -0.013640	           -0.637892	            0.050763	           12.773584	          514.454451	           32.332874	           -0.228388	            0.005642	           -0.692966	            0.028603	            1.151994	            0.072402
            3.761000	            9.144825	          407.912762	          -33.262721	           -0.195206	            0.006197	           -0.397636	           -0.012670	           -0.565161	            0.046085	           13.873014	          521.453758	           33.014357	           -0.228649	            0.005640	           -0.692710	            0.036997	            1.390628	            0.088044
            3.761500	            9.599583	          413.685874	          -34.293806	           -0.195064	            0.006199	           -0.398030	           -0.013851	           -0.596885	            0.049481	           15.574931	          530.296124	           33.889864	           -0.228820	            0.005641	           -0.693103	            0.041570	            1.415393	            0.090454
            3.762000	            9.873084	          419.094880	          -34.500583	           -0.195395	            0.006197	           -0.397745	           -0.019226	           -0.816089	            0.067182	           17.052106	          536.557879	           35.225554	           -0.228838	            0.005641	           -0.693002	            0.037448	            1.178343	            0.077359
            3.762500	           10.558469	          426.487509	          -34.837445	           -0.195952	            0.006196	           -0.397384	           -0.021830	           -0.881793	            0.072029	           17.680605	          544.290338	           36.426074	           -0.229078	            0.005640	           -0.693042	            0.033018	            1.016444	            0.068025
            3.763000	           11.382329	          432.436798	          -34.905697	           -0.195720	            0.006196	           -0.397390	           -0.021649	           -0.822505	            0.066391	           18.259531	          552.759693	           37.488458	           -0.229055	            0.005642	           -0.693704	            0.032261	            0.976618	            0.066235
            3.763500	           11.790627	          437.850550	          -36.213350	           -0.195528	            0.006197	           -0.397644	           -0.019295	           -0.716533	            0.059262	           18.280045	          560.123726	           38.077857	           -0.229184	            0.005641	           -0.693388	            0.037218	            1.140404	            0.077526
            3.764000	           12.152544	          444.346476	          -37.653823	           -0.195624	            0.006197	           -0.397675	           -0.013503	           -0.493740	            0.041839	           18.625039	          568.410879	           38.341906	           -0.229199	            0.005642	           -0.693659	            0.048532	            1.481118	            0.099908
            3.764500	           12.331073	          450.301797	          -39.142019	           -0.195480	            0.006197	           -0.397603	           -0.013291	           -0.485366	            0.042190	           19.398573	          574.856139	           39.162342	           -0.229618	            0.005639	           -0.693253	            0.056645	            1.678608	            0.114356
